<?xml version="1.0" encoding="UTF-8"?>
<svg id="icons" xmlns="http://www.w3.org/2000/svg" viewBox="0 0 479.31 493.43">
  <defs>
    <style>
      .cls-1 {
        stroke: #fff;
      }

      .cls-1, .cls-2 {
        stroke-linejoin: round;
        stroke-width: 32px;
      }

      .cls-2 {
        stroke: #000;
      }
    </style>
  </defs>
  <path class="cls-2" d="M294.98,57.85v8.44l-56.43-11.57c-22.64-4.64-44.75,9.95-49.4,32.59l-61.64,300.63c-1.31,6.38-1.09,12.72.42,18.64H57.84c-23.11,0-41.84-18.73-41.84-41.84V57.85c0-23.11,18.73-41.85,41.84-41.85h195.3c23.11,0,41.84,18.74,41.84,41.85Z"/>
  <path class="cls-1" d="M462.45,143.35l-61.64,300.63c-4.64,22.64-26.76,37.23-49.4,32.59l-191.31-39.22c-16.26-3.34-28.37-15.69-32.17-30.77-1.51-5.92-1.73-12.26-.42-18.64l61.64-300.63c4.65-22.64,26.76-37.23,49.4-32.59l56.43,11.57,134.89,27.66c22.64,4.64,37.23,26.76,32.58,49.4Z"/>
</svg>