<?xml version="1.0" encoding="UTF-8"?>
<svg id="Layer_1" data-name="Layer 1" xmlns="http://www.w3.org/2000/svg" viewBox="0 0 465.78 477.27">
  <path d="M152.03,477.27c-9.26,0-17.97-5.6-21.47-14.7l-19.75-51.33c-1.01-.65-1.95-1.42-2.8-2.29-3.01-3.1-4.64-7.28-4.53-11.6l.13-4.79-5.25-13.66-83.67-32.19c-6.04-2.33-10.84-7.12-13.17-13.14-4.54-11.89,1.39-25.18,13.18-29.71l83.67-32.19,9.33-24.25,1.52-54.18c.07-2.27-1.55-4.14-3.77-4.39l-41.25-4.66c-6.98-.79-12.62-6.03-13.93-12.93l-14.03-74.25c-1.47-7.78,2.97-15.46,10.44-18.07l4.68-1.64c-.05-.5-.07-1-.07-1.5,0-6.62,4.08-12.56,10.26-14.93l36.55-14.06,14.06-36.55C114.55,4.08,120.48,0,127.1,0c6.62,0,12.56,4.08,14.93,10.25l11.98,31.13,23.36-8.17c4.54-1.6,9.33-2.42,14.2-2.42,1.81,0,3.6.31,5.3.9.11.04,17.4,5.85,44.11,5.85s44-5.81,44.17-5.87c1.7-.6,3.43-.88,5.24-.88,4.87,0,9.66.82,14.23,2.43l6.86,2.4s0,0,0,0l123.77,43.32c7.47,2.61,11.91,10.3,10.44,18.07l-14.03,74.25c-.09.47-.2.93-.33,1.39l24.18,9.3c6.18,2.38,10.26,8.31,10.26,14.93s-4.08,12.56-10.26,14.93l-62.69,24.12-17.61,45.77,3.25,115.64c.12,4.32-1.51,8.5-4.52,11.6-3.01,3.1-7.15,4.85-11.47,4.85h-170.31l-18.77,48.78c-2.33,6.04-7.12,10.84-13.14,13.17-2.71,1.04-5.5,1.53-8.24,1.53ZM137.71,392.04l14.27,37.1,25.19-65.47c2.33-6.04,7.12-10.83,13.13-13.17l65.52-25.2-65.48-25.19c-6.05-2.35-10.83-7.13-13.16-13.14l-25.2-65.52-25.19,65.48c-2.35,6.06-7.15,10.85-13.17,13.17l-65.49,25.19,65.47,25.19c6.05,2.34,10.85,7.14,13.18,13.17l10.92,28.38ZM204.48,381.79h141.54l-2.15-76.34c-2.21-1.74-3.97-4.08-5.03-6.82l-24.12-62.69-62.69-24.12c-6.18-2.38-10.26-8.31-10.26-14.93s4.08-12.56,10.26-14.93l62.69-24.12,24.12-62.69c2.38-6.18,8.31-10.26,14.93-10.26.65,0,1.29.04,1.93.12l-40.15-14.05c-17.39,34.54-57.23,53.44-96.05,43.11-13.59-3.61-25.81-10.56-35.74-19.91l-27.67,10.64-14.07,36.56c-2.38,6.18-8.31,10.25-14.93,10.25h0c-6.62,0-12.56-4.08-14.93-10.26l-14.06-36.56-13.54-5.21-14.31,5.01,9.28,49.12,29.51,3.33c12.94,1.46,23.72,9.79,28.89,21.04,1.75-1.36,3.71-2.46,5.83-3.27,11.79-4.53,25.1,1.38,29.64,13.19l32.19,83.67,83.67,32.19c6.06,2.34,10.86,7.14,13.18,13.18h0s.02.05.03.07c4.5,11.77-1.41,25.05-13.2,29.59l-83.68,32.19-1.11,2.89ZM302.35,196.88l30.51,11.74c4.23,1.62,7.56,4.96,9.19,9.19l11.74,30.51,11.74-30.51c1.62-4.23,4.96-7.56,9.19-9.19l30.51-11.74-26.27-10.1s-.04-.01-.05-.02l-4.2-1.62c-4.22-1.63-7.55-4.96-9.18-9.18l-11.74-30.51-11.74,30.51c-1.63,4.22-4.96,7.56-9.19,9.19l-30.51,11.74ZM160.45,199.44l-.02.06s.02-.04.02-.06ZM362.18,87.26c2.92,1.8,5.25,4.53,6.54,7.88l23,59.79,10.71-1.21,9.28-49.12-49.53-17.33ZM111.88,75.8l4.36,1.68c4.23,1.63,7.56,4.97,9.19,9.19l1.68,4.37,1.68-4.37c1.63-4.23,4.96-7.56,9.19-9.19l4.35-1.67-.62-.24s-.01,0-.02,0l-3.73-1.44c-4.22-1.63-7.55-4.96-9.17-9.18l-1.68-4.37-1.68,4.37c-1.62,4.23-4.96,7.57-9.19,9.19l-4.36,1.68ZM200.89,65.66c6.77,8.4,16.12,14.62,26.86,17.48,20.26,5.39,40.97-2.13,53.36-17.48-9.54,1.93-23.33,3.89-40.12,3.89s-30.56-1.95-40.1-3.88Z"/>
</svg>