<?xml version="1.0" encoding="UTF-8"?>
<svg id="Layer_1" data-name="Layer 1" xmlns="http://www.w3.org/2000/svg" viewBox="0 0 329.51 512">
  <path d="M102.78,339.52c6.42-18.18,8.98-37.27,7.73-56.12v-.11c-1.24-18.95-6.38-37.69-15.24-54.96-1.43-2.77-4.87-3.86-7.65-2.44-2.78,1.42-3.87,4.87-2.44,7.64,8.15,15.87,12.86,33.07,14.02,50.52v.09c1.11,16.93-1.11,34.09-6.71,50.47-6.49,5.67-12.11,11.27-16.87,16.75-5.07,5.83-9.16,11.61-12.27,17.21l-.02.04-.13.22v.02l-.14.23-.04.11v.02l-.04.11-.03.02-.04.11-.02.03-.05.11-.02.02-.04.11-.03.05-.02.08-.02.05-.02.09-.03.04-.02.09-.02.05-.02.08-.02.05-.03.09-.11.33v.2l-.02.07v1.13l.02.07v.2l.11.33.03.09.02.05.02.08.02.05.02.09.03.04.02.09.02.05.02.08.03.05.04.11.02.02.05.11.02.03.04.11.03.02.04.11v.02l.04.11.14.23v.02l.13.22c3.62,6.62,7.14,13.64,10.47,21.05,3.38,7.46,6.64,15.46,9.78,23.95,1.06,2.94,4.35,4.45,7.29,3.38,1.06-.38,1.95-1.04,2.57-1.89l-.02.05.09-.11c16.11-18.25,13.38-28.94,9.8-42.87-2.42-9.43-5.31-20.69-.53-38.54ZM90.58,405.99c-2.09-5.2-4.22-10.22-6.43-15.11-3.06-6.78-6.22-13.22-9.46-19.27h.02c2.56-4.22,5.73-8.51,9.51-12.87,1.47-1.73,3.07-3.44,4.74-5.2-.69,11.36,1.48,19.83,3.4,27.27,2.2,8.6,3.97,15.58-1.78,25.18ZM182.8,378.12c-1.95-1.96-4.69-3.18-7.69-3.18-2.75,0-5.29,1.05-7.2,2.76l-.49.42c-1.95,1.95-3.17,4.69-3.17,7.69s1.22,5.73,3.2,7.69c1.95,1.98,4.69,3.2,7.66,3.2v-.02c3,0,5.72-1.2,7.69-3.18,1.96-1.96,3.18-4.69,3.18-7.69s-1.2-5.71-3.18-7.69ZM182.8,378.12c-1.95-1.96-4.69-3.18-7.69-3.18-2.75,0-5.29,1.05-7.2,2.76l-.49.42c-1.95,1.95-3.17,4.69-3.17,7.69s1.22,5.73,3.2,7.69c1.95,1.98,4.69,3.2,7.66,3.2v-.02c3,0,5.72-1.2,7.69-3.18,1.96-1.96,3.18-4.69,3.18-7.69s-1.2-5.71-3.18-7.69ZM102.78,339.52c6.42-18.18,8.98-37.27,7.73-56.12v-.11c-1.24-18.95-6.38-37.69-15.24-54.96-1.43-2.77-4.87-3.86-7.65-2.44-2.78,1.42-3.87,4.87-2.44,7.64,8.15,15.87,12.86,33.07,14.02,50.52v.09c1.11,16.93-1.11,34.09-6.71,50.47-6.49,5.67-12.11,11.27-16.87,16.75-5.07,5.83-9.16,11.61-12.27,17.21l-.02.04-.13.22v.02l-.14.23-.04.11v.02l-.04.11-.03.02-.04.11-.02.03-.05.11-.02.02-.04.11-.03.05-.02.08-.02.05-.02.09-.03.04-.02.09-.02.05-.02.08-.02.05-.03.09-.11.33v.2l-.02.07v1.13l.02.07v.2l.11.33.03.09.02.05.02.08.02.05.02.09.03.04.02.09.02.05.02.08.03.05.04.11.02.02.05.11.02.03.04.11.03.02.04.11v.02l.04.11.14.23v.02l.13.22c3.62,6.62,7.14,13.64,10.47,21.05,3.38,7.46,6.64,15.46,9.78,23.95,1.06,2.94,4.35,4.45,7.29,3.38,1.06-.38,1.95-1.04,2.57-1.89l-.02.05.09-.11c16.11-18.25,13.38-28.94,9.8-42.87-2.42-9.43-5.31-20.69-.53-38.54ZM90.58,405.99c-2.09-5.2-4.22-10.22-6.43-15.11-3.06-6.78-6.22-13.22-9.46-19.27h.02c2.56-4.22,5.73-8.51,9.51-12.87,1.47-1.73,3.07-3.44,4.74-5.2-.69,11.36,1.48,19.83,3.4,27.27,2.2,8.6,3.97,15.58-1.78,25.18ZM182.8,378.12c-1.95-1.96-4.69-3.18-7.69-3.18-2.75,0-5.29,1.05-7.2,2.76l-.49.42c-1.95,1.95-3.17,4.69-3.17,7.69s1.22,5.73,3.2,7.69c1.95,1.98,4.69,3.2,7.66,3.2v-.02c3,0,5.72-1.2,7.69-3.18,1.96-1.96,3.18-4.69,3.18-7.69s-1.2-5.71-3.18-7.69ZM102.78,339.52c6.42-18.18,8.98-37.27,7.73-56.12v-.11c-1.24-18.95-6.38-37.69-15.24-54.96-1.43-2.77-4.87-3.86-7.65-2.44-2.78,1.42-3.87,4.87-2.44,7.64,8.15,15.87,12.86,33.07,14.02,50.52v.09c1.11,16.93-1.11,34.09-6.71,50.47-6.49,5.67-12.11,11.27-16.87,16.75-5.07,5.83-9.16,11.61-12.27,17.21l-.02.04-.13.22v.02l-.14.23-.04.11v.02l-.04.11-.03.02-.04.11-.02.03-.05.11-.02.02-.04.11-.03.05-.02.08-.02.05-.02.09-.03.04-.02.09-.02.05-.02.08-.02.05-.03.09-.11.33v.2l-.02.07v1.13l.02.07v.2l.11.33.03.09.02.05.02.08.02.05.02.09.03.04.02.09.02.05.02.08.03.05.04.11.02.02.05.11.02.03.04.11.03.02.04.11v.02l.04.11.14.23v.02l.13.22c3.62,6.62,7.14,13.64,10.47,21.05,3.38,7.46,6.64,15.46,9.78,23.95,1.06,2.94,4.35,4.45,7.29,3.38,1.06-.38,1.95-1.04,2.57-1.89l-.02.05.09-.11c16.11-18.25,13.38-28.94,9.8-42.87-2.42-9.43-5.31-20.69-.53-38.54ZM90.58,405.99c-2.09-5.2-4.22-10.22-6.43-15.11-3.06-6.78-6.22-13.22-9.46-19.27h.02c2.56-4.22,5.73-8.51,9.51-12.87,1.47-1.73,3.07-3.44,4.74-5.2-.69,11.36,1.48,19.83,3.4,27.27,2.2,8.6,3.97,15.58-1.78,25.18Z"/>
  <path d="M325.3,253.26l-.02-.13-.04-.31-.03-.13c-2.22-17.85-19.31-23.43-37.4-29.32-13.04-4.22-26.73-8.69-32.98-17.98l-.07-.11c-1.51-2.29-2.64-4.93-3.26-8-.65-3.22-.74-6.98-.18-11.35v-.05l.04-.35v-.45l-.02-.69v-.02l-.02-.25v-.02l-.09-.51-.02-.04-.11-.4-.02-.09-.07-.18-.02-.09c-.16-.42-.38-.82-.65-1.2l-.04-.04c-.45-.63-1-1.16-1.69-1.56l-.25-.13-.26-.14-.11-.04-.03-.02-.11-.05c-7.98-3.42-13.13-6.8-15.44-10.04l-.02-.02-.07-.09-.05-.07-.02-.04-.04-.07-.02-.04-.07-.09-.02-.05-.07-.09-.02-.02-.07-.09-.11-.11v-.02l-.09-.09-.09-.11-.18-.18h-.02l-.09-.09h-.02l-.11-.11-.09-.07-.02-.02-.09-.06-.02-.03-.09-.06-.02-.03-.09-.06-.02-.02-.09-.07-.03-.02-.09-.07-.02-.02-.09-.05-.02-.02-.11-.07-.09-.04-.02-.02-.09-.05h-.02l-.11-.04h-.03l-.11-.05h-.02l-.11-.04h-.02l-.14-.04-.11-.05h-.02l-.11-.04-.27-.09-.4-.07h-.02l-.11-.02h-.02l-.11-.02h-.05l-.24-.03h-.05l-.44-.02h-.6c3.04-4.82,6.13-10.2,9.2-16.13,16.09.44,28.47-.45,37.05-2.49,7.8-1.87,13.09-4.85,15.73-8.82,3.31-4.94,2.82-10.45-1.51-16.41-5.29-7.26-17.6-15.86-37.14-25.26,1.4-21.12,1.18-38.56-.64-52.34-1.98-15.02-6-25.96-12.05-32.78-1.22-1.65-3.28-2.6-5.44-2.27-9.62,1.47-19.56,1.4-29.71-.22-10.32-1.67-20.98-4.91-31.98-9.73l-.47-.16-.09-.02-.04-.02-.14-.05-.09-.02c-1-.27-2.02-.22-3,.04h-.02l-.24.07-.25.09-.49.22-.02.02-.11.05-.02.02-.11.04-.03.03-.22.13-.02.02-.09.05-.02.02-.09.07-.02.02-.09.06-.02.03c-.25.2-.47.4-.69.62l-.11.11-.4.49-.05.04-.18.23c-7.57,10.57-14.71,21.75-21.35,33.49-6.11,10.8-11.89,22.15-17.29,34.04-25.96-.75-42.74,2.14-51.45,7.2-6.02,3.49-8.94,8.14-8.94,13.52,0,4.82,2.54,9.8,7.41,14.71,10.31,10.4,32.82,21.84,64.49,30.91,1.69,6.38,3.64,12.31,5.89,17.8l.24.51c2.18,5.23,4.56,10.07,7.2,14.52-1.37,2.15-2.8,4.22-4.26,6.15-1.96,2.63-3.98,4.96-5.98,7.05l-.02.02-.07.09-.18.18-.09.11c-12.46,12.73-26.51,17.11-38.89,20.98-15.42,4.82-28.62,8.95-35.87,25.33-.18.4-.29.8-.38,1.22v.03c-2.51,9.15-5.29,16.95-8.35,23.4-2.76,5.8-5.71,10.4-8.85,13.78-6.18,3.13-12.02,10-17.49,20.6-5.22,10.15-10.35,24.07-15.38,41.69-6.84,8.42-11.13,16.51-12.89,24.22-1.91,8.43-.84,16.34,3.2,23.7,7.85,18.75,17.54,39.11,29.03,61.02,11.44,21.83,24.71,45.16,39.74,70.01v.02l.06.11c.45.8,1.09,1.52,1.91,2.05,1.11.71,2.38.98,3.6.87l.27-.03.13-.02c1.51-.24,2.94-1.11,3.83-2.51h-.18c7.33-11.41,15.62-19.19,24.84-23.25,8.94-3.96,19.03-4.49,30.14-1.6l.13.04c.27.09.53.13.8.18l.04.02h.09c12.83,1.91,24.83,2.42,35.92,1.53,11.18-.91,21.49-3.24,30.89-7l.13-.04.54-.27.06-.04.05-.02.06-.05.14-.07c19.22-10.33,39.11-10.11,59.6.6l.23.14.26.13.11.05.4.17.54.18h.02l.11.02h.02l.11.03h.03l.11.02h.02l.11.02h.02l.11.02h.03l.11.02h.04l.11.03h1.38l.11-.03h.05l.11-.02.04-.02.11-.02.05-.02.13-.03.11-.02.02-.02.11-.02.03-.03.13-.04.11-.04h.02l.25-.09.26-.09.12-.05.22-.13.51-.31c24.53-16.72,41.18-44.2,49.94-82.5,8.53-37.4,9.57-85.27,3.06-143.54ZM102.78,339.52c-4.78,17.85-1.89,29.11.53,38.54,3.58,13.93,6.31,24.62-9.8,42.87l-.09.11.02-.05c-.62.85-1.51,1.51-2.57,1.89-2.94,1.07-6.23-.44-7.29-3.38-3.14-8.49-6.4-16.49-9.78-23.95-3.33-7.41-6.85-14.43-10.47-21.05l-.13-.22v-.02l-.14-.23-.04-.11v-.02l-.04-.11-.03-.02-.04-.11-.02-.03-.05-.11-.02-.02-.04-.11-.03-.05-.02-.08-.02-.05-.02-.09-.03-.04-.02-.09-.02-.05-.02-.08-.02-.05-.03-.09-.11-.33v-.2l-.02-.07v-1.13l.02-.07v-.2l.11-.33.03-.09.02-.05.02-.08.02-.05.02-.09.03-.04.02-.09.02-.05.02-.08.03-.05.04-.11.02-.02.05-.11.02-.03.04-.11.03-.02.04-.11v-.02l.04-.11.14-.23v-.02l.13-.22.02-.04c3.11-5.6,7.2-11.38,12.27-17.21,4.76-5.48,10.38-11.08,16.87-16.75,5.6-16.38,7.82-33.54,6.71-50.47v-.09c-1.16-17.45-5.87-34.65-14.02-50.52-1.43-2.77-.34-6.22,2.44-7.64,2.78-1.42,6.22-.33,7.65,2.44,8.86,17.27,14,36.01,15.24,54.96v.11c1.25,18.85-1.31,37.94-7.73,56.12ZM152.02,41.76c5.78-10.2,11.89-19.89,18.29-29.06,10.38,4.2,20.56,7.13,30.5,8.71,10.26,1.62,20.26,1.86,29.95.71,3.69,5.27,6.29,13.55,7.78,24.82,1.71,12.96,1.89,29.63.56,49.94-18.12,4.62-36.81,4.82-54.63.95-17.73-3.86-34.58-11.77-49.07-23.42,5.18-11.36,10.74-22.25,16.62-32.65ZM142.71,126.59l-.09-.02-.26-.09c-31.27-8.64-53.08-19.38-62.45-28.82-2.67-2.71-4.07-5-4.07-6.74,0-1.17,1.04-2.42,3.22-3.69,7.25-4.2,22.54-6.51,47.21-5.64,16.37,13.69,35.55,22.96,55.78,27.36,20.16,4.4,41.38,3.97,61.89-1.63v.03c18.71,8.86,30.12,16.46,34.45,22.42,1.22,1.69,1.62,2.85,1.24,3.42-1,1.54-4,2.91-8.93,4.09-8.33,1.98-20.78,2.78-37.18,2.16-.31-.05-.6-.07-.89-.05-17.87-.71-40.33-3.06-67.27-7.31l-.09-.02-11.64-2.65c-3.74-.88-7.36-1.84-10.87-2.8l-.05-.02ZM222.59,193.29c.66,4.06,1.64,8,2.93,11.77-9.73.58-17.6-.17-23.53-2.26-3.49-1.25-6.32-2.98-8.45-5.23,6.2-1.62,12.38-5.44,18.51-11.44,3.23-3.16,6.45-6.93,9.69-11.38-.4,6.42-.11,12.62.85,18.54ZM149.05,140.13l1.82.44,11.96,2.73.76.12c23.2,3.66,43.26,5.93,60.09,6.97-6.71,12.29-13.27,21.56-19.65,27.83-6.73,6.6-13.09,9.6-19.02,8.98l-.14-.03h-.24c-1.18-.17-2.38-.46-3.56-.89l-.22-.08c-1.31-.52-2.69-1.2-4.07-2.09l-.06-.05-.05-.04h-.02l-.07-.05-.26-.13c-2.42-1.62-4.89-3.8-7.31-6.51-1.6-1.78-3.2-3.8-4.83-6.07l.18.13.05.03.24.17.56.36.08.04c7.29,4.32,13.98,6.05,20.05,5.25l.2-.04c6.38-.92,11.73-4.52,16.09-10.78l.09-.11.04-.07.05-.05.04-.06.03-.05.06-.11.54-1.06.02-.09.02-.05.02-.09.14-.4.02-.09.02-.04.02-.09.02-.04.03-.09v-.05l.02-.11v-1l-.02-.13v-.16l-.14-.8-.31-.93-.04-.11-.11-.25-.34-.55-.24-.33v-.03l-.09-.09v-.02l-.11-.11-.27-.29-.33-.33-.07-.05-.04-.04-.07-.04-.04-.05-.07-.04-.11-.09-.07-.05-.04-.04-.07-.05-.16-.08-1.06-.54-.09-.02-.05-.02-.08-.02-.4-.14c-5.76-1.64-11.43-2.11-16.96-1.38-5.67.74-11.14,2.74-16.42,5.96l-.05.04-.04.03-.07.04-.04.02-.52.38-.08.07-.03.02-.17.16-.18.17-.05.07-.26.33-.07.09-.02.05-.09.11-.05.04-.04.07-.09.11-.07.11-.26.51-.07.13-.08.23-.03.04-.22.67-.02.09v.04l-.05.14-.02.04-.02.09-.04.27-.05.35v.07c-.02.33-.02.69.02,1.02l.03.07.15.77.02.03.03.09.11.35-1.36-2.07-.04-.06-.03-.05-.02-.02-.09-.13-.04-.09c-3.07-4.82-5.8-10.05-8.14-15.71l-.17-.47c-1.34-3.24-2.56-6.62-3.65-10.13ZM150.12,187.71c1.49-1.67,2.93-3.45,4.35-5.34.67-.89,1.34-1.82,2-2.77,1.38,1.82,2.76,3.51,4.16,5.06,2.51,2.78,5.07,5.16,7.62,7.09.47,4.4,0,8.71-1.4,12.94-.91,2.75-2.22,5.49-3.91,8.2l-12.82-25.18ZM182.8,393.5c-1.97,1.98-4.69,3.18-7.69,3.18v.02c-2.97,0-5.71-1.22-7.66-3.2-1.98-1.96-3.2-4.69-3.2-7.69s1.22-5.74,3.17-7.69l.49-.42c1.91-1.71,4.45-2.76,7.2-2.76,3,0,5.74,1.22,7.69,3.18,1.98,1.98,3.18,4.69,3.18,7.69s-1.22,5.73-3.18,7.69ZM227.81,261.16c-2.67,14.66-7.51,30-14.56,45.98-6.06-10.78-12.4-22.27-18.95-34.45-8.07-14.96-16.6-31.11-25.56-48.42,4.11-5.21,7.09-10.56,8.89-16.03,1.15-3.51,1.84-7.09,2.07-10.71l.35.09c3.33,7.49,9.4,12.78,18.2,15.87,7.96,2.8,18.2,3.71,30.72,2.71,2.06,14.29,1.69,29.29-1.16,44.96ZM238.9,207.75l-.02-.02-.07-.13v-.02l-.04-.12c-2.38-5.04-4.05-10.4-4.96-16.02-.36-2.15-.6-4.38-.73-6.64,1.97,1.22,4.17,2.42,6.62,3.6-.25,4.04,0,7.73.69,11.09.82,4.02,2.22,7.57,4.11,10.73l.09,7.02c-2.18-2.97-4.09-6.15-5.69-9.49Z"/>
  <path d="M244.59,217.24c-2.18-2.97-4.09-6.15-5.69-9.49l-.02-.02-.07-.13v-.02l-.04-.12c-2.38-5.04-4.05-10.4-4.96-16.02-.36-2.15-.6-4.38-.73-6.64,1.97,1.22,4.17,2.42,6.62,3.6-.25,4.04,0,7.73.69,11.09.82,4.02,2.22,7.57,4.11,10.73l.09,7.02Z"/>
  <path d="M279.63,133.19c-1,1.54-4,2.91-8.93,4.09-8.33,1.98-20.78,2.78-37.18,2.16-.31-.05-.6-.07-.89-.05-17.87-.71-40.33-3.06-67.27-7.31l-.09-.02-11.64-2.65c-3.74-.88-7.36-1.84-10.87-2.8l-.05-.02-.09-.02-.26-.09c-31.27-8.64-53.08-19.38-62.45-28.82-2.67-2.71-4.07-5-4.07-6.74,0-1.17,1.04-2.42,3.22-3.69,7.25-4.2,22.54-6.51,47.21-5.64,16.37,13.69,35.55,22.96,55.78,27.36,20.16,4.4,41.38,3.97,61.89-1.63v.03c18.71,8.86,30.12,16.46,34.45,22.42,1.22,1.69,1.62,2.85,1.24,3.42Z"/>
  <path d="M239.1,96.88c-18.12,4.62-36.81,4.82-54.63.95-17.73-3.86-34.58-11.77-49.07-23.42,5.18-11.36,10.74-22.25,16.62-32.65,5.78-10.2,11.89-19.89,18.29-29.06,10.38,4.2,20.56,7.13,30.5,8.71,10.26,1.62,20.26,1.86,29.95.71,3.69,5.27,6.29,13.55,7.78,24.82,1.71,12.96,1.89,29.63.56,49.94Z"/>
</svg>