<?xml version="1.0" encoding="UTF-8"?>
<svg id="Layer_1" data-name="Layer 1" xmlns="http://www.w3.org/2000/svg" viewBox="0 0 306.87 483.34">
  <path d="M123.98,61.72c14.49,11.65,31.34,19.56,49.07,23.42,17.82,3.87,36.51,3.67,54.63-.96,1.33-20.31,1.16-36.98-.56-49.94-1.49-11.27-4.09-19.56-7.78-24.82-9.69,1.16-19.69.91-29.96-.71-9.93-1.58-20.11-4.51-30.49-8.71-6.4,9.18-12.51,18.87-18.29,29.07-5.89,10.4-11.45,21.29-16.62,32.65h0ZM232.52,94.63c-20.51,5.6-41.74,6.02-61.89,1.62-20.22-4.4-39.4-13.67-55.78-27.36-24.67-.87-39.96,1.44-47.2,5.64-2.18,1.27-3.22,2.51-3.22,3.69,0,1.73,1.4,4.02,4.07,6.73,9.38,9.45,31.18,20.18,62.45,28.82l.27.09.09.02.04.02c3.51.96,7.13,1.91,10.87,2.8l11.65,2.64.09.02c26.94,4.24,49.4,6.6,67.27,7.31.29-.02.58,0,.89.04,16.4.62,28.85-.18,37.18-2.16,4.93-1.18,7.93-2.56,8.93-4.09.38-.58-.02-1.73-1.24-3.42-4.33-5.96-15.73-13.56-34.45-22.42v-.02ZM214.25,396.32c-3,0-5.73-1.22-7.69-3.18l-.47-.53c-1.67-1.91-2.71-4.42-2.71-7.16,0-2.98,1.22-5.69,3.18-7.67,2-1.98,4.71-3.22,7.69-3.22,1.02,0,2,.16,2.96.4-14.65-13.38-27.45-26.07-38.38-38.07-24.2-26.56-39.54-50-45.98-70.36-6.84-21.56-3.96-39.69,8.62-54.43.71-.82,1.44-1.62,2.18-2.42l-13.42-26.36c-12.85,10.87-26.18,15.02-38.11,18.76-12.67,3.96-23.51,7.33-28.74,18.82-2.71,9.85-5.71,18.22-9,25.16-3.49,7.31-7.33,13.13-11.58,17.47l-.09.11-.49.49-.07.04-.04.04-.07.04-.04.04-.07.04-.04.04-.07.04-.04.04-.07.04-.04.04-.07.04-.04.04-.07.04-.04.04-.27.18-.07.02-.07.04-.18.09c-4.09,1.78-8.42,7.09-12.96,15.87-5.02,9.71-9.98,23.29-14.87,40.69-.24.89-.69,1.69-1.29,2.31l-.09.11c-5.96,7.24-9.65,13.96-11.05,20.09-1.27,5.62-.58,10.87,2.07,15.71l.02.04.07.11.02.04.04.07.02.04.04.07.02.04.09.13.02.07.09.18.04.13c7.8,18.65,17.36,38.74,28.65,60.27,10.25,19.51,21.96,40.29,35.11,62.27,7.33-9.47,15.58-16.22,24.69-20.25,11.36-5.02,23.89-5.76,37.58-2.18,11.93,1.76,23.02,2.22,33.22,1.42,10.02-.82,19.2-2.87,27.51-6.18,21.85-11.71,44.29-11.98,67.34-.8,20.62-15.22,34.82-39.8,42.58-73.72,8.29-36.18,9.22-82.89,2.82-140.05-1.22-10.8-15.05-15.29-29.65-20.05-9.91-3.22-20.13-6.56-28.38-12.16l-.11,7.18c1.6,1.36,3.27,2.67,4.98,3.91,2.42,1.78,4.98,3.49,7.67,5.09l.13.09.27.13.02.02.11.07.02.02.11.07h.02l.33.27.69.69.02.04.07.07.02.04.07.07.02.04.07.07.02.04.09.11.04.07.02.04.04.07.02.04.04.07.02.04.04.07.02.04.04.07.09.18.11.2.09.18.13.36v.04l.04.11v.02l.04.11v.02l.04.11v.02l.07.24v.02l.09.53v.42c1.02,20.58-1.64,39.78-7.98,57.54-5.89,16.56-15,31.87-27.29,45.91,4.73,7.78,9.29,15,13.6,21.62l.18.29c2.62,4,5.13,7.78,7.56,11.29,6.11-16.25,11.49-34.29,16.16-54.07,5.6-23.82,10.18-50.23,13.67-79.16.36-3.11,3.2-5.33,6.31-4.98s5.33,3.2,4.98,6.31c-3.53,29.31-8.18,56.14-13.89,80.41-5.69,24.18-12.51,45.89-20.4,65.11l-.09.27-.16.38-.07.13-4.6,10.58-.09.27-.04.11v.02l-.13.22-.07.13-.27.44-.36.44v.02l-.09.09v.02l-.22.22-.09.07-.02.02-.09.07-.24.24-.07.04-.04.04-.07.04-.51.36-.04.02-.07.04-.04.02-.07.04-.04.02-.07.04-.04.02-.38.18-.07.04-.04.02-.07.04-.04.02-.4.11-.09.02h-.04l-.09.02h-.04l-.22.04h-.04l-.13.02-.09.02-.18.02h-.13l-.56.02h-.6l-.07-.02h-.07l-.07-.02h-.07l-.09-.02h-.04l-.09-.02h-.04l-.27-.07-.09-.04h-.04l-.11-.04h-.04l-.11-.04h-.02l-.11-.04h-.02l-.11-.04h-.02l-.11-.04h-.02l-.22-.13-.13-.07-.44-.27-.44-.36h-.02l-.09-.09c-5.04-4.31-9.91-8.58-14.62-12.76.49,1.24.76,2.6.76,4,0,3-1.22,5.73-3.18,7.69-1.98,1.98-4.69,3.18-7.69,3.18l-.31-.31ZM163.69,384c-2.98,0-5.71-1.22-7.67-3.2-1.98-1.96-3.2-4.69-3.2-7.69s1.22-5.73,3.18-7.69l.49-.42c1.91-1.71,4.44-2.76,7.2-2.76,3,0,5.73,1.22,7.69,3.18,1.98,1.98,3.18,4.69,3.18,7.69s-1.22,5.73-3.18,7.69c-1.98,1.98-4.69,3.18-7.69,3.18v.02ZM233.17,204.55l-.09-7.02c-1.89-3.16-3.29-6.71-4.11-10.73-.69-3.36-.93-7.05-.69-11.09-2.44-1.18-4.64-2.38-6.62-3.6.13,2.27.38,4.49.73,6.65.91,5.62,2.58,10.98,4.96,16.02l.04.11v.02l.07.13.02.02c1.6,3.33,3.51,6.51,5.69,9.49h0ZM151.41,151.68l.27-.51.07-.11.09-.11.04-.07.04-.04.09-.11.02-.04.07-.09.27-.33.04-.07.18-.18.18-.16.02-.02.09-.07.51-.38.04-.02.07-.04.04-.02.04-.04c5.29-3.22,10.76-5.22,16.42-5.96,5.53-.73,11.2-.27,16.96,1.38l.4.13.09.02.04.02.09.02,1.07.53.11.07.04.02.07.04.04.04.07.04.11.09.07.04.04.04.07.04.04.04.07.04.33.33.27.29.11.11v.02l.09.09v.02l.24.33.33.56.11.24.04.11.31.93.13.8v.16l.02.13v1l-.02.11v.04l-.02.09-.02.04-.02.09-.02.04-.02.09-.13.4-.02.09-.02.04-.02.09-.53,1.07-.07.11-.02.04-.04.07-.04.04-.04.07-.09.11c-4.36,6.27-9.71,9.87-16.09,10.78l-.2.04c-6.07.8-12.76-.93-20.05-5.24l-.09-.04-.56-.36-.24-.18-.04-.02-.18-.13c1.62,2.27,3.22,4.29,4.82,6.07,2.42,2.71,4.89,4.89,7.31,6.51l.27.13.07.04h.02l.04.04.07.04c1.38.89,2.76,1.58,4.07,2.09l.22.09c1.18.42,2.38.71,3.56.89h.24l.13.02c5.93.62,12.29-2.38,19.02-8.98,6.38-6.27,12.93-15.53,19.65-27.82-16.82-1.04-36.89-3.31-60.09-6.98l-.76-.11-11.96-2.73-1.82-.44c1.09,3.51,2.31,6.89,3.64,10.13l.18.47c2.33,5.67,5.07,10.89,8.13,15.71l.04.09.09.13.02.02.02.04.04.07,1.36,2.07-.11-.36-.02-.09-.02-.02-.16-.78-.02-.07c-.04-.33-.04-.69-.02-1.02v-.07l.04-.36.04-.27.02-.09.02-.04.04-.13v-.04l.02-.09.22-.67.02-.04.09-.22.06-.13ZM182.12,184.88c2.13,2.24,4.96,3.98,8.45,5.22,5.93,2.09,13.8,2.84,23.53,2.27-1.29-3.78-2.27-7.71-2.93-11.78-.96-5.91-1.24-12.11-.84-18.53-3.24,4.44-6.47,8.22-9.69,11.38-6.13,6-12.31,9.82-18.51,11.45h0ZM217.55,203.5c-12.51,1-22.76.09-30.71-2.71-8.8-3.09-14.87-8.38-18.2-15.87l-.36-.09c-.22,3.62-.91,7.2-2.07,10.71-1.8,5.47-4.78,10.82-8.89,16.02,8.96,17.31,17.49,33.47,25.56,48.43,6.56,12.18,12.89,23.67,18.96,34.45,7.05-15.98,11.89-31.31,14.56-45.98,2.84-15.67,3.22-30.67,1.16-44.96h0ZM151.52,200.19c1.69-2.71,3-5.44,3.91-8.2,1.4-4.22,1.87-8.53,1.4-12.93-2.56-1.93-5.11-4.31-7.62-7.09-1.4-1.56-2.78-3.24-4.16-5.07-.67.96-1.33,1.89-2,2.78-1.42,1.89-2.87,3.67-4.36,5.33l12.82,25.18ZM208.79,306.6l6.27,10.84,3.6,6.04c10.11-12.18,17.69-25.34,22.73-39.45,5.56-15.56,8.05-32.34,7.49-50.29-2.16-1.38-4.22-2.78-6.18-4.22-2.8-2.04-5.4-4.16-7.8-6.33-1.64-1.51-3.22-3.07-4.73-4.64.24,10.33-.62,20.96-2.62,31.87-3.27,17.98-9.53,36.71-18.78,56.14l.02.04ZM240.64,380.63l.49-1.11c-3.76-5.24-7.78-11.11-12-17.6l-.2-.29c-4.89-7.49-10.18-15.93-15.82-25.29l-.13-.22-.07-.13-.07-.11-7.51-12.67-7.71-13.27-.13-.22-.02-.02-.04-.09-.07-.11-.02-.02c-7.56-13.2-15.69-27.91-24.4-44.07-7.53-13.98-15.45-28.94-23.69-44.87-9.11,11.38-10.98,25.58-5.58,42.58,5.96,18.73,20.49,40.78,43.58,66.14,14.51,15.91,32.31,33.07,53.43,51.4l-.02-.02ZM63.27,358.91c3.24,6.04,6.4,12.49,9.47,19.27,2.2,4.89,4.33,9.91,6.42,15.11,5.76-9.6,3.98-16.58,1.78-25.18-1.91-7.45-4.09-15.91-3.4-27.27-1.67,1.76-3.27,3.47-4.73,5.2-3.78,4.36-6.96,8.64-9.51,12.87h-.02ZM82.02,408.3c-.62.84-1.51,1.51-2.58,1.89-2.93,1.07-6.22-.44-7.29-3.38-3.13-8.49-6.4-16.49-9.78-23.96-3.33-7.4-6.84-14.42-10.47-21.05l-.13-.22v-.02l-.13-.22-.04-.11v-.02l-.04-.11-.02-.02-.04-.11-.02-.02-.04-.11-.02-.02-.04-.11-.02-.04-.02-.09-.02-.04-.02-.09-.02-.04-.02-.09-.02-.04-.02-.09-.02-.04-.02-.09-.11-.33v-.2l-.02-.07v-1.13l.02-.07v-.2l.11-.33.02-.09.02-.04.02-.09.02-.04.02-.09.02-.04.02-.09.02-.04.02-.09.02-.04.04-.11.02-.02.04-.11.02-.02.04-.11.02-.02.04-.11v-.02l.04-.11.13-.22v-.02l.13-.22.02-.04c3.11-5.6,7.2-11.38,12.27-17.2,4.76-5.49,10.38-11.09,16.87-16.76,5.6-16.38,7.82-33.54,6.71-50.47v-.09c-1.16-17.45-5.87-34.65-14.02-50.51-1.42-2.78-.33-6.22,2.44-7.65,2.78-1.42,6.22-.33,7.65,2.44,8.87,17.27,14,36,15.25,54.96v.11c1.24,18.85-1.31,37.94-7.73,56.12-4.78,17.85-1.89,29.11.53,38.54,3.58,13.93,6.31,24.62-9.8,42.87l-.09.11.02-.05Z"/>
</svg>